General
Complete name                            : D:\\TV Shows\\The Gadget Show S16E10 (webrip)-tbilisi-.avi
Format                                   : AVI
Format/Info                              : Audio Video Interleave
File size                                : 400 MiB
Duration                                 : 39mn 42s
Overall bit rate                         : 1 409 Kbps

Video
ID                                       : 0
Format                                   : MPEG-4 Visual
Format profile                           : Advanced Simple@L5
Format settings, BVOP                    : 2
Format settings, QPel                    : No
Format settings, GMC                     : No warppoints
Format settings, Matrix                  : Default (H.263)
Codec ID                                 : XVID
Codec ID/Hint                            : XviD
Duration                                 : 39mn 42s
Bit rate                                 : 1 267 Kbps
Width                                    : 640 pixels
Height                                   : 360 pixels
Display aspect ratio                     : 16:9
Frame rate                               : 30.000 fps
Color space                              : YUV
Chroma subsampling                       : 4:2:0
Bit depth                                : 8 bits
Scan type                                : Progressive
Compression mode                         : Lossy
Bits/(Pixel*Frame)                       : 0.183
Stream size                              : 360 MiB (90%)
Writing library                          : XviD 63

Audio
ID                                       : 1
Format                                   : MPEG Audio
Format version                           : Version 1
Format profile                           : Layer 3
Codec ID                                 : 55
Codec ID/Hint                            : MP3
Duration                                 : 39mn 42s
Bit rate mode                            : Constant
Bit rate                                 : 128 Kbps
Channel(s)                               : 2 channels
Sampling rate                            : 44.1 KHz
Compression mode                         : Lossy
Stream size                              : 36.4 MiB (9%)
Alignment                                : Split accross interleaves
Interleave, duration                     : 26 ms (0.78 video frame)
Writing library                          : LAME

